<?xml version="1.0" encoding="UTF-8"?>
<svg id="Layer_2" data-name="Layer 2" xmlns="http://www.w3.org/2000/svg" viewBox="0 0 2538.46 318.63">
  <defs>
    <style>
      .cls-1 {
        fill: #3d3d3d;
      }

      .cls-2 {
        fill: #545454;
      }

      .cls-3 {
        fill: #232323;
        opacity: 0;
      }
    </style>
  </defs>
  <g id="Layer_2-2" data-name="Layer 2">
    <g id="Layer_3" data-name="Layer 3">
      <g>
        <rect class="cls-3" width="2538.46" height="318.63"/>
        <path class="cls-1" d="M12.82,318.63c-3.53,0-6.41-2.88-6.41-6.41V57.16c0-3.53,2.88-6.41,6.41-6.41s6.41,2.88,6.41,6.41v255.06c0,3.53-2.88,6.41-6.41,6.41Z"/>
        <path class="cls-1" d="M38.46,288.74c-3.53,0-6.41-2.88-6.41-6.41V27.28c0-3.53,2.88-6.41,6.41-6.41s6.41,2.88,6.41,6.41v255.06c0,3.53-2.88,6.41-6.41,6.41Z"/>
        <path class="cls-2" d="M64.1,267.88c-3.53,0-6.41-2.88-6.41-6.41V6.41c0-3.53,2.88-6.41,6.41-6.41s6.41,2.88,6.41,6.41v255.06c0,3.53-2.88,6.41-6.41,6.41Z"/>
        <path class="cls-1" d="M89.74,318.63c-3.53,0-6.41-2.88-6.41-6.41V57.16c0-3.53,2.88-6.41,6.41-6.41s6.41,2.88,6.41,6.41v255.06c0,3.53-2.88,6.41-6.41,6.41Z"/>
        <path class="cls-1" d="M115.38,288.74c-3.53,0-6.41-2.88-6.41-6.41V27.28c0-3.53,2.88-6.41,6.41-6.41s6.41,2.88,6.41,6.41v255.06c0,3.53-2.88,6.41-6.41,6.41Z"/>
        <path class="cls-2" d="M141.03,267.88c-3.53,0-6.41-2.88-6.41-6.41V6.41c0-3.53,2.88-6.41,6.41-6.41s6.41,2.88,6.41,6.41v255.06c0,3.53-2.88,6.41-6.41,6.41Z"/>
        <path class="cls-1" d="M166.67,318.63c-3.53,0-6.41-2.88-6.41-6.41V57.16c0-3.53,2.88-6.41,6.41-6.41s6.41,2.88,6.41,6.41v255.06c0,3.53-2.88,6.41-6.41,6.41Z"/>
        <path class="cls-1" d="M192.31,288.74c-3.53,0-6.41-2.88-6.41-6.41V27.28c0-3.53,2.88-6.41,6.41-6.41s6.41,2.88,6.41,6.41v255.06c0,3.53-2.88,6.41-6.41,6.41Z"/>
        <path class="cls-2" d="M217.95,267.88c-3.53,0-6.41-2.88-6.41-6.41V6.41c0-3.53,2.88-6.41,6.41-6.41s6.41,2.88,6.41,6.41v255.06c0,3.53-2.88,6.41-6.41,6.41Z"/>
        <path class="cls-1" d="M243.59,318.63c-3.53,0-6.41-2.88-6.41-6.41V57.16c0-3.53,2.88-6.41,6.41-6.41s6.41,2.88,6.41,6.41v255.06c0,3.53-2.88,6.41-6.41,6.41Z"/>
        <path class="cls-1" d="M269.23,288.74c-3.53,0-6.41-2.88-6.41-6.41V27.28c0-3.53,2.88-6.41,6.41-6.41s6.41,2.88,6.41,6.41v255.06c0,3.53-2.88,6.41-6.41,6.41Z"/>
        <path class="cls-2" d="M294.87,267.88c-3.53,0-6.41-2.88-6.41-6.41V6.41c0-3.53,2.88-6.41,6.41-6.41s6.41,2.88,6.41,6.41v255.06c0,3.53-2.88,6.41-6.41,6.41Z"/>
        <path class="cls-1" d="M320.51,318.63c-3.53,0-6.41-2.88-6.41-6.41V57.16c0-3.53,2.88-6.41,6.41-6.41s6.41,2.88,6.41,6.41v255.06c0,3.53-2.88,6.41-6.41,6.41Z"/>
        <path class="cls-1" d="M346.15,288.74c-3.53,0-6.41-2.88-6.41-6.41V27.28c0-3.53,2.88-6.41,6.41-6.41s6.41,2.88,6.41,6.41v255.06c0,3.53-2.88,6.41-6.41,6.41Z"/>
        <path class="cls-2" d="M371.79,267.88c-3.53,0-6.41-2.88-6.41-6.41V6.41c0-3.53,2.88-6.41,6.41-6.41s6.41,2.88,6.41,6.41v255.06c0,3.53-2.88,6.41-6.41,6.41Z"/>
        <path class="cls-1" d="M397.44,318.63c-3.53,0-6.41-2.88-6.41-6.41V57.16c0-3.53,2.88-6.41,6.41-6.41s6.41,2.88,6.41,6.41v255.06c0,3.53-2.88,6.41-6.41,6.41Z"/>
        <path class="cls-1" d="M423.08,288.74c-3.53,0-6.41-2.88-6.41-6.41V27.28c0-3.53,2.88-6.41,6.41-6.41s6.41,2.88,6.41,6.41v255.06c0,3.53-2.88,6.41-6.41,6.41Z"/>
        <path class="cls-2" d="M448.72,267.88c-3.53,0-6.41-2.88-6.41-6.41V6.41c0-3.53,2.88-6.41,6.41-6.41s6.41,2.88,6.41,6.41v255.06c0,3.53-2.88,6.41-6.41,6.41Z"/>
        <path class="cls-1" d="M474.36,318.63c-3.53,0-6.41-2.88-6.41-6.41V57.16c0-3.53,2.88-6.41,6.41-6.41s6.41,2.88,6.41,6.41v255.06c0,3.53-2.88,6.41-6.41,6.41Z"/>
        <path class="cls-1" d="M500,288.74c-3.53,0-6.41-2.88-6.41-6.41V27.28c0-3.53,2.88-6.41,6.41-6.41s6.41,2.88,6.41,6.41v255.06c0,3.53-2.88,6.41-6.41,6.41Z"/>
        <path class="cls-2" d="M525.64,267.88c-3.53,0-6.41-2.88-6.41-6.41V6.41c0-3.53,2.88-6.41,6.41-6.41s6.41,2.88,6.41,6.41v255.06c0,3.53-2.88,6.41-6.41,6.41Z"/>
        <path class="cls-1" d="M551.28,318.63c-3.53,0-6.41-2.88-6.41-6.41V57.16c0-3.53,2.88-6.41,6.41-6.41s6.41,2.88,6.41,6.41v255.06c0,3.53-2.88,6.41-6.41,6.41Z"/>
        <path class="cls-1" d="M576.92,288.74c-3.53,0-6.41-2.88-6.41-6.41V27.28c0-3.53,2.88-6.41,6.41-6.41s6.41,2.88,6.41,6.41v255.06c0,3.53-2.88,6.41-6.41,6.41Z"/>
        <path class="cls-2" d="M602.56,267.88c-3.53,0-6.41-2.88-6.41-6.41V6.41c0-3.53,2.88-6.41,6.41-6.41s6.41,2.88,6.41,6.41v255.06c0,3.53-2.88,6.41-6.41,6.41Z"/>
        <path class="cls-1" d="M628.21,318.63c-3.53,0-6.41-2.88-6.41-6.41V57.16c0-3.53,2.88-6.41,6.41-6.41s6.41,2.88,6.41,6.41v255.06c0,3.53-2.88,6.41-6.41,6.41Z"/>
        <path class="cls-1" d="M653.85,288.74c-3.53,0-6.41-2.88-6.41-6.41V27.28c0-3.53,2.88-6.41,6.41-6.41s6.41,2.88,6.41,6.41v255.06c0,3.53-2.88,6.41-6.41,6.41Z"/>
        <path class="cls-1" d="M705.13,318.63c-3.53,0-6.41-2.88-6.41-6.41V57.16c0-3.53,2.88-6.41,6.41-6.41s6.41,2.88,6.41,6.41v255.06c0,3.53-2.88,6.41-6.41,6.41Z"/>
        <path class="cls-1" d="M730.77,288.74c-3.53,0-6.41-2.88-6.41-6.41V27.28c0-3.53,2.88-6.41,6.41-6.41s6.41,2.88,6.41,6.41v255.06c0,3.53-2.88,6.41-6.41,6.41Z"/>
        <path class="cls-2" d="M679.49,267.88c-3.53,0-6.41-2.88-6.41-6.41V6.41c0-3.53,2.88-6.41,6.41-6.41s6.41,2.88,6.41,6.41v255.06c0,3.53-2.88,6.41-6.41,6.41Z"/>
        <path class="cls-2" d="M756.41,267.88c-3.53,0-6.41-2.88-6.41-6.41V6.41c0-3.53,2.88-6.41,6.41-6.41s6.41,2.88,6.41,6.41v255.06c0,3.53-2.88,6.41-6.41,6.41Z"/>
        <path class="cls-1" d="M782.05,318.63c-3.53,0-6.41-2.88-6.41-6.41V57.16c0-3.53,2.88-6.41,6.41-6.41s6.41,2.88,6.41,6.41v255.06c0,3.53-2.88,6.41-6.41,6.41Z"/>
        <path class="cls-1" d="M807.69,288.74c-3.53,0-6.41-2.88-6.41-6.41V27.28c0-3.53,2.88-6.41,6.41-6.41s6.41,2.88,6.41,6.41v255.06c0,3.53-2.88,6.41-6.41,6.41Z"/>
        <path class="cls-2" d="M833.33,267.88c-3.53,0-6.41-2.88-6.41-6.41V6.41c0-3.53,2.88-6.41,6.41-6.41s6.41,2.88,6.41,6.41v255.06c0,3.53-2.88,6.41-6.41,6.41Z"/>
        <path class="cls-1" d="M858.97,318.63c-3.53,0-6.41-2.88-6.41-6.41V57.16c0-3.53,2.88-6.41,6.41-6.41s6.41,2.88,6.41,6.41v255.06c0,3.53-2.88,6.41-6.41,6.41Z"/>
        <path class="cls-1" d="M884.62,288.74c-3.53,0-6.41-2.88-6.41-6.41V27.28c0-3.53,2.88-6.41,6.41-6.41s6.41,2.88,6.41,6.41v255.06c0,3.53-2.88,6.41-6.41,6.41Z"/>
        <path class="cls-2" d="M910.26,267.88c-3.53,0-6.41-2.88-6.41-6.41V6.41c0-3.53,2.88-6.41,6.41-6.41s6.41,2.88,6.41,6.41v255.06c0,3.53-2.88,6.41-6.41,6.41Z"/>
        <path class="cls-1" d="M935.9,318.63c-3.53,0-6.41-2.88-6.41-6.41V57.16c0-3.53,2.88-6.41,6.41-6.41s6.41,2.88,6.41,6.41v255.06c0,3.53-2.88,6.41-6.41,6.41Z"/>
        <path class="cls-1" d="M961.54,288.74c-3.53,0-6.41-2.88-6.41-6.41V27.28c0-3.53,2.88-6.41,6.41-6.41s6.41,2.88,6.41,6.41v255.06c0,3.53-2.88,6.41-6.41,6.41Z"/>
        <path class="cls-2" d="M987.18,267.88c-3.53,0-6.41-2.88-6.41-6.41V6.41c0-3.53,2.88-6.41,6.41-6.41s6.41,2.88,6.41,6.41v255.06c0,3.53-2.88,6.41-6.41,6.41Z"/>
        <path class="cls-1" d="M1012.82,318.63c-3.53,0-6.41-2.88-6.41-6.41V57.16c0-3.53,2.88-6.41,6.41-6.41s6.41,2.88,6.41,6.41v255.06c0,3.53-2.88,6.41-6.41,6.41Z"/>
        <path class="cls-1" d="M1038.46,288.74c-3.53,0-6.41-2.88-6.41-6.41V27.28c0-3.53,2.88-6.41,6.41-6.41s6.41,2.88,6.41,6.41v255.06c0,3.53-2.88,6.41-6.41,6.41Z"/>
        <path class="cls-2" d="M1064.1,267.88c-3.53,0-6.41-2.88-6.41-6.41V6.41c0-3.53,2.88-6.41,6.41-6.41s6.41,2.88,6.41,6.41v255.06c0,3.53-2.88,6.41-6.41,6.41Z"/>
        <path class="cls-1" d="M1089.74,318.63c-3.53,0-6.41-2.88-6.41-6.41V57.16c0-3.53,2.88-6.41,6.41-6.41s6.41,2.88,6.41,6.41v255.06c0,3.53-2.88,6.41-6.41,6.41Z"/>
        <path class="cls-1" d="M1115.38,288.74c-3.53,0-6.41-2.88-6.41-6.41V27.28c0-3.53,2.88-6.41,6.41-6.41s6.41,2.88,6.41,6.41v255.06c0,3.53-2.88,6.41-6.41,6.41Z"/>
        <path class="cls-2" d="M1141.03,267.88c-3.53,0-6.41-2.88-6.41-6.41V6.41c0-3.53,2.88-6.41,6.41-6.41s6.41,2.88,6.41,6.41v255.06c0,3.53-2.88,6.41-6.41,6.41Z"/>
        <path class="cls-1" d="M1166.67,318.63c-3.53,0-6.41-2.88-6.41-6.41V57.16c0-3.53,2.88-6.41,6.41-6.41s6.41,2.88,6.41,6.41v255.06c0,3.53-2.88,6.41-6.41,6.41Z"/>
        <path class="cls-1" d="M1192.31,288.74c-3.53,0-6.41-2.88-6.41-6.41V27.28c0-3.53,2.88-6.41,6.41-6.41s6.41,2.88,6.41,6.41v255.06c0,3.53-2.88,6.41-6.41,6.41Z"/>
        <path class="cls-2" d="M1217.95,267.88c-3.53,0-6.41-2.88-6.41-6.41V6.41c0-3.53,2.88-6.41,6.41-6.41s6.41,2.88,6.41,6.41v255.06c0,3.53-2.88,6.41-6.41,6.41Z"/>
        <path class="cls-1" d="M1243.59,318.63c-3.53,0-6.41-2.88-6.41-6.41V57.16c0-3.53,2.88-6.41,6.41-6.41s6.41,2.88,6.41,6.41v255.06c0,3.53-2.88,6.41-6.41,6.41Z"/>
        <path class="cls-1" d="M1269.23,288.74c-3.53,0-6.41-2.88-6.41-6.41V27.28c0-3.53,2.88-6.41,6.41-6.41s6.41,2.88,6.41,6.41v255.06c0,3.53-2.88,6.41-6.41,6.41Z"/>
        <path class="cls-2" d="M1294.87,267.88c-3.53,0-6.41-2.88-6.41-6.41V6.41c0-3.53,2.88-6.41,6.41-6.41s6.41,2.88,6.41,6.41v255.06c0,3.53-2.88,6.41-6.41,6.41Z"/>
        <path class="cls-1" d="M1320.51,318.63c-3.53,0-6.41-2.88-6.41-6.41V57.16c0-3.53,2.88-6.41,6.41-6.41s6.41,2.88,6.41,6.41v255.06c0,3.53-2.88,6.41-6.41,6.41Z"/>
        <path class="cls-1" d="M1346.15,288.74c-3.53,0-6.41-2.88-6.41-6.41V27.28c0-3.53,2.88-6.41,6.41-6.41s6.41,2.88,6.41,6.41v255.06c0,3.53-2.88,6.41-6.41,6.41Z"/>
        <path class="cls-2" d="M1371.79,267.88c-3.53,0-6.41-2.88-6.41-6.41V6.41c0-3.53,2.88-6.41,6.41-6.41s6.41,2.88,6.41,6.41v255.06c0,3.53-2.88,6.41-6.41,6.41Z"/>
        <path class="cls-1" d="M1397.44,318.63c-3.53,0-6.41-2.88-6.41-6.41V57.16c0-3.53,2.88-6.41,6.41-6.41s6.41,2.88,6.41,6.41v255.06c0,3.53-2.88,6.41-6.41,6.41Z"/>
        <path class="cls-1" d="M1423.08,288.74c-3.53,0-6.41-2.88-6.41-6.41V27.28c0-3.53,2.88-6.41,6.41-6.41s6.41,2.88,6.41,6.41v255.06c0,3.53-2.88,6.41-6.41,6.41Z"/>
        <path class="cls-2" d="M1448.72,267.88c-3.53,0-6.41-2.88-6.41-6.41V6.41c0-3.53,2.88-6.41,6.41-6.41s6.41,2.88,6.41,6.41v255.06c0,3.53-2.88,6.41-6.41,6.41Z"/>
        <path class="cls-1" d="M1474.36,318.63c-3.53,0-6.41-2.88-6.41-6.41V57.16c0-3.53,2.88-6.41,6.41-6.41s6.41,2.88,6.41,6.41v255.06c0,3.53-2.88,6.41-6.41,6.41Z"/>
        <path class="cls-1" d="M1500,288.74c-3.53,0-6.41-2.88-6.41-6.41V27.28c0-3.53,2.88-6.41,6.41-6.41s6.41,2.88,6.41,6.41v255.06c0,3.53-2.88,6.41-6.41,6.41Z"/>
        <path class="cls-2" d="M1525.64,267.88c-3.53,0-6.41-2.88-6.41-6.41V6.41c0-3.53,2.88-6.41,6.41-6.41s6.41,2.88,6.41,6.41v255.06c0,3.53-2.88,6.41-6.41,6.41Z"/>
        <path class="cls-1" d="M1551.28,318.63c-3.53,0-6.41-2.88-6.41-6.41V57.16c0-3.53,2.88-6.41,6.41-6.41s6.41,2.88,6.41,6.41v255.06c0,3.53-2.88,6.41-6.41,6.41Z"/>
        <path class="cls-1" d="M1576.92,288.74c-3.53,0-6.41-2.88-6.41-6.41V27.28c0-3.53,2.88-6.41,6.41-6.41s6.41,2.88,6.41,6.41v255.06c0,3.53-2.88,6.41-6.41,6.41Z"/>
        <path class="cls-2" d="M1602.56,267.88c-3.53,0-6.41-2.88-6.41-6.41V6.41c0-3.53,2.88-6.41,6.41-6.41s6.41,2.88,6.41,6.41v255.06c0,3.53-2.88,6.41-6.41,6.41Z"/>
        <path class="cls-1" d="M1628.21,318.63c-3.53,0-6.41-2.88-6.41-6.41V57.16c0-3.53,2.88-6.41,6.41-6.41s6.41,2.88,6.41,6.41v255.06c0,3.53-2.88,6.41-6.41,6.41Z"/>
        <path class="cls-1" d="M1653.85,288.74c-3.53,0-6.41-2.88-6.41-6.41V27.28c0-3.53,2.88-6.41,6.41-6.41s6.41,2.88,6.41,6.41v255.06c0,3.53-2.88,6.41-6.41,6.41Z"/>
        <path class="cls-2" d="M1679.49,267.88c-3.53,0-6.41-2.88-6.41-6.41V6.41c0-3.53,2.88-6.41,6.41-6.41s6.41,2.88,6.41,6.41v255.06c0,3.53-2.88,6.41-6.41,6.41Z"/>
        <path class="cls-1" d="M1705.13,318.63c-3.53,0-6.41-2.88-6.41-6.41V57.16c0-3.53,2.88-6.41,6.41-6.41s6.41,2.88,6.41,6.41v255.06c0,3.53-2.88,6.41-6.41,6.41Z"/>
        <path class="cls-1" d="M1730.77,288.74c-3.53,0-6.41-2.88-6.41-6.41V27.28c0-3.53,2.88-6.41,6.41-6.41s6.41,2.88,6.41,6.41v255.06c0,3.53-2.88,6.41-6.41,6.41Z"/>
        <path class="cls-2" d="M1756.41,267.88c-3.53,0-6.41-2.88-6.41-6.41V6.41c0-3.53,2.88-6.41,6.41-6.41s6.41,2.88,6.41,6.41v255.06c0,3.53-2.88,6.41-6.41,6.41Z"/>
        <path class="cls-1" d="M1782.05,318.63c-3.53,0-6.41-2.88-6.41-6.41V57.16c0-3.53,2.88-6.41,6.41-6.41s6.41,2.88,6.41,6.41v255.06c0,3.53-2.88,6.41-6.41,6.41Z"/>
        <path class="cls-1" d="M1807.69,288.74c-3.53,0-6.41-2.88-6.41-6.41V27.28c0-3.53,2.88-6.41,6.41-6.41s6.41,2.88,6.41,6.41v255.06c0,3.53-2.88,6.41-6.41,6.41Z"/>
        <path class="cls-2" d="M1833.33,267.88c-3.53,0-6.41-2.88-6.41-6.41V6.41c0-3.53,2.88-6.41,6.41-6.41s6.41,2.88,6.41,6.41v255.06c0,3.53-2.88,6.41-6.41,6.41Z"/>
        <path class="cls-1" d="M1858.97,318.63c-3.53,0-6.41-2.88-6.41-6.41V57.16c0-3.53,2.88-6.41,6.41-6.41s6.41,2.88,6.41,6.41v255.06c0,3.53-2.88,6.41-6.41,6.41Z"/>
        <path class="cls-1" d="M1884.62,288.74c-3.53,0-6.41-2.88-6.41-6.41V27.28c0-3.53,2.88-6.41,6.41-6.41s6.41,2.88,6.41,6.41v255.06c0,3.53-2.88,6.41-6.41,6.41Z"/>
        <path class="cls-1" d="M1935.9,318.63c-3.53,0-6.41-2.88-6.41-6.41V57.16c0-3.53,2.88-6.41,6.41-6.41s6.41,2.88,6.41,6.41v255.06c0,3.53-2.88,6.41-6.41,6.41Z"/>
        <path class="cls-1" d="M1961.54,288.74c-3.53,0-6.41-2.88-6.41-6.41V27.28c0-3.53,2.88-6.41,6.41-6.41s6.41,2.88,6.41,6.41v255.06c0,3.53-2.88,6.41-6.41,6.41Z"/>
        <path class="cls-2" d="M1910.26,267.88c-3.53,0-6.41-2.88-6.41-6.41V6.41c0-3.53,2.88-6.41,6.41-6.41s6.41,2.88,6.41,6.41v255.06c0,3.53-2.88,6.41-6.41,6.41Z"/>
        <path class="cls-2" d="M1987.18,267.88c-3.53,0-6.41-2.88-6.41-6.41V6.41c0-3.53,2.88-6.41,6.41-6.41s6.41,2.88,6.41,6.41v255.06c0,3.53-2.88,6.41-6.41,6.41Z"/>
        <path class="cls-1" d="M2012.82,318.63c-3.53,0-6.41-2.88-6.41-6.41V57.16c0-3.53,2.88-6.41,6.41-6.41s6.41,2.88,6.41,6.41v255.06c0,3.53-2.88,6.41-6.41,6.41Z"/>
        <path class="cls-1" d="M2038.46,288.74c-3.53,0-6.41-2.88-6.41-6.41V27.28c0-3.53,2.88-6.41,6.41-6.41s6.41,2.88,6.41,6.41v255.06c0,3.53-2.88,6.41-6.41,6.41Z"/>
        <path class="cls-2" d="M2064.1,267.88c-3.53,0-6.41-2.88-6.41-6.41V6.41c0-3.53,2.88-6.41,6.41-6.41s6.41,2.88,6.41,6.41v255.06c0,3.53-2.88,6.41-6.41,6.41Z"/>
        <path class="cls-1" d="M2089.74,318.63c-3.53,0-6.41-2.88-6.41-6.41V57.16c0-3.53,2.88-6.41,6.41-6.41s6.41,2.88,6.41,6.41v255.06c0,3.53-2.88,6.41-6.41,6.41Z"/>
        <path class="cls-1" d="M2115.38,288.74c-3.53,0-6.41-2.88-6.41-6.41V27.28c0-3.53,2.88-6.41,6.41-6.41s6.41,2.88,6.41,6.41v255.06c0,3.53-2.88,6.41-6.41,6.41Z"/>
        <path class="cls-2" d="M2141.03,267.88c-3.53,0-6.41-2.88-6.41-6.41V6.41c0-3.53,2.88-6.41,6.41-6.41s6.41,2.88,6.41,6.41v255.06c0,3.53-2.88,6.41-6.41,6.41Z"/>
        <path class="cls-1" d="M2166.67,318.63c-3.53,0-6.41-2.88-6.41-6.41V57.16c0-3.53,2.88-6.41,6.41-6.41s6.41,2.88,6.41,6.41v255.06c0,3.53-2.88,6.41-6.41,6.41Z"/>
        <path class="cls-1" d="M2192.31,288.74c-3.53,0-6.41-2.88-6.41-6.41V27.28c0-3.53,2.88-6.41,6.41-6.41s6.41,2.88,6.41,6.41v255.06c0,3.53-2.88,6.41-6.41,6.41Z"/>
        <path class="cls-2" d="M2217.95,267.88c-3.53,0-6.41-2.88-6.41-6.41V6.41c0-3.53,2.88-6.41,6.41-6.41s6.41,2.88,6.41,6.41v255.06c0,3.53-2.88,6.41-6.41,6.41Z"/>
        <path class="cls-1" d="M2243.59,318.63c-3.53,0-6.41-2.88-6.41-6.41V57.16c0-3.53,2.88-6.41,6.41-6.41s6.41,2.88,6.41,6.41v255.06c0,3.53-2.88,6.41-6.41,6.41Z"/>
        <path class="cls-1" d="M2269.23,288.74c-3.53,0-6.41-2.88-6.41-6.41V27.28c0-3.53,2.88-6.41,6.41-6.41s6.41,2.88,6.41,6.41v255.06c0,3.53-2.88,6.41-6.41,6.41Z"/>
        <path class="cls-2" d="M2294.87,267.88c-3.53,0-6.41-2.88-6.41-6.41V6.41c0-3.53,2.88-6.41,6.41-6.41s6.41,2.88,6.41,6.41v255.06c0,3.53-2.88,6.41-6.41,6.41Z"/>
        <path class="cls-1" d="M2320.51,318.63c-3.53,0-6.41-2.88-6.41-6.41V57.16c0-3.53,2.88-6.41,6.41-6.41s6.41,2.88,6.41,6.41v255.06c0,3.53-2.88,6.41-6.41,6.41Z"/>
        <path class="cls-1" d="M2346.15,288.74c-3.53,0-6.41-2.88-6.41-6.41V27.28c0-3.53,2.88-6.41,6.41-6.41s6.41,2.88,6.41,6.41v255.06c0,3.53-2.88,6.41-6.41,6.41Z"/>
        <path class="cls-2" d="M2371.79,267.88c-3.53,0-6.41-2.88-6.41-6.41V6.41c0-3.53,2.88-6.41,6.41-6.41s6.41,2.88,6.41,6.41v255.06c0,3.53-2.88,6.41-6.41,6.41Z"/>
        <path class="cls-1" d="M2397.44,318.63c-3.53,0-6.41-2.88-6.41-6.41V57.16c0-3.53,2.88-6.41,6.41-6.41s6.41,2.88,6.41,6.41v255.06c0,3.53-2.88,6.41-6.41,6.41Z"/>
        <path class="cls-1" d="M2423.08,288.74c-3.53,0-6.41-2.88-6.41-6.41V27.28c0-3.53,2.88-6.41,6.41-6.41s6.41,2.88,6.41,6.41v255.06c0,3.53-2.88,6.41-6.41,6.41Z"/>
        <path class="cls-2" d="M2448.72,267.88c-3.53,0-6.41-2.88-6.41-6.41V6.41c0-3.53,2.88-6.41,6.41-6.41s6.41,2.88,6.41,6.41v255.06c0,3.53-2.88,6.41-6.41,6.41Z"/>
        <path class="cls-1" d="M2474.36,318.63c-3.53,0-6.41-2.88-6.41-6.41V57.16c0-3.53,2.88-6.41,6.41-6.41s6.41,2.88,6.41,6.41v255.06c0,3.53-2.88,6.41-6.41,6.41Z"/>
        <path class="cls-1" d="M2500,288.74c-3.53,0-6.41-2.88-6.41-6.41V27.28c0-3.53,2.88-6.41,6.41-6.41s6.41,2.88,6.41,6.41v255.06c0,3.53-2.88,6.41-6.41,6.41Z"/>
        <path class="cls-2" d="M2525.64,267.88c-3.53,0-6.41-2.88-6.41-6.41V6.41c0-3.53,2.88-6.41,6.41-6.41s6.41,2.88,6.41,6.41v255.06c0,3.53-2.88,6.41-6.41,6.41Z"/>
      </g>
    </g>
  </g>
</svg>