<?xml version="1.0" encoding="UTF-8"?>
<svg id="Layer_2" data-name="Layer 2" xmlns="http://www.w3.org/2000/svg" viewBox="0 0 1294.87 247.63">
  <defs>
    <style>
      .cls-1 {
        fill: #242424;
      }

      .cls-2 {
        fill: #2b2b2b;
      }
    </style>
  </defs>
  <g id="Layer_2-2" data-name="Layer 2">
    <g id="Layer_3" data-name="Layer 3">
      <g>
        <path class="cls-1" d="M6.41,247.63c-3.53,0-6.41-2.88-6.41-6.41V57.16c0-3.53,2.88-6.41,6.41-6.41s6.41,2.88,6.41,6.41V241.22c0,3.53-2.88,6.41-6.41,6.41Z"/>
        <path class="cls-1" d="M32.05,217.74c-3.53,0-6.41-2.88-6.41-6.41V27.28c0-3.53,2.88-6.41,6.41-6.41s6.41,2.88,6.41,6.41V211.33c0,3.53-2.88,6.41-6.41,6.41Z"/>
        <path class="cls-2" d="M57.69,196.88c-3.53,0-6.41-2.88-6.41-6.41V6.41c0-3.53,2.88-6.41,6.41-6.41s6.41,2.88,6.41,6.41V190.47c0,3.53-2.88,6.41-6.41,6.41Z"/>
        <path class="cls-1" d="M83.33,247.63c-3.53,0-6.41-2.88-6.41-6.41V57.16c0-3.53,2.88-6.41,6.41-6.41s6.41,2.88,6.41,6.41V241.22c0,3.53-2.88,6.41-6.41,6.41Z"/>
        <path class="cls-1" d="M108.97,217.74c-3.53,0-6.41-2.88-6.41-6.41V27.28c0-3.53,2.88-6.41,6.41-6.41s6.41,2.88,6.41,6.41V211.33c0,3.53-2.88,6.41-6.41,6.41Z"/>
        <path class="cls-2" d="M134.62,196.88c-3.53,0-6.41-2.88-6.41-6.41V6.41c0-3.53,2.88-6.41,6.41-6.41s6.41,2.88,6.41,6.41V190.47c0,3.53-2.88,6.41-6.41,6.41Z"/>
        <path class="cls-1" d="M160.26,247.63c-3.53,0-6.41-2.88-6.41-6.41V57.16c0-3.53,2.88-6.41,6.41-6.41s6.41,2.88,6.41,6.41V241.22c0,3.53-2.88,6.41-6.41,6.41Z"/>
        <path class="cls-1" d="M185.9,217.74c-3.53,0-6.41-2.88-6.41-6.41V27.28c0-3.53,2.88-6.41,6.41-6.41s6.41,2.88,6.41,6.41V211.33c0,3.53-2.88,6.41-6.41,6.41Z"/>
        <path class="cls-2" d="M211.54,196.88c-3.53,0-6.41-2.88-6.41-6.41V6.41c0-3.53,2.88-6.41,6.41-6.41s6.41,2.88,6.41,6.41V190.47c0,3.53-2.88,6.41-6.41,6.41Z"/>
        <path class="cls-1" d="M237.18,247.63c-3.53,0-6.41-2.88-6.41-6.41V57.16c0-3.53,2.88-6.41,6.41-6.41s6.41,2.88,6.41,6.41V241.22c0,3.53-2.88,6.41-6.41,6.41Z"/>
        <path class="cls-1" d="M262.82,217.74c-3.53,0-6.41-2.88-6.41-6.41V27.28c0-3.53,2.88-6.41,6.41-6.41s6.41,2.88,6.41,6.41V211.33c0,3.53-2.88,6.41-6.41,6.41Z"/>
        <path class="cls-2" d="M288.46,196.88c-3.53,0-6.41-2.88-6.41-6.41V6.41c0-3.53,2.88-6.41,6.41-6.41s6.41,2.88,6.41,6.41V190.47c0,3.53-2.88,6.41-6.41,6.41Z"/>
        <path class="cls-1" d="M314.1,247.63c-3.53,0-6.41-2.88-6.41-6.41V57.16c0-3.53,2.88-6.41,6.41-6.41s6.41,2.88,6.41,6.41V241.22c0,3.53-2.88,6.41-6.41,6.41Z"/>
        <path class="cls-1" d="M339.74,217.74c-3.53,0-6.41-2.88-6.41-6.41V27.28c0-3.53,2.88-6.41,6.41-6.41s6.41,2.88,6.41,6.41V211.33c0,3.53-2.88,6.41-6.41,6.41Z"/>
        <path class="cls-2" d="M365.38,196.88c-3.53,0-6.41-2.88-6.41-6.41V6.41c0-3.53,2.88-6.41,6.41-6.41s6.41,2.88,6.41,6.41V190.47c0,3.53-2.88,6.41-6.41,6.41Z"/>
        <path class="cls-1" d="M391.03,247.63c-3.53,0-6.41-2.88-6.41-6.41V57.16c0-3.53,2.88-6.41,6.41-6.41s6.41,2.88,6.41,6.41V241.22c0,3.53-2.88,6.41-6.41,6.41Z"/>
        <path class="cls-1" d="M416.67,217.74c-3.53,0-6.41-2.88-6.41-6.41V27.28c0-3.53,2.88-6.41,6.41-6.41s6.41,2.88,6.41,6.41V211.33c0,3.53-2.88,6.41-6.41,6.41Z"/>
        <path class="cls-2" d="M442.31,196.88c-3.53,0-6.41-2.88-6.41-6.41V6.41c0-3.53,2.88-6.41,6.41-6.41s6.41,2.88,6.41,6.41V190.47c0,3.53-2.88,6.41-6.41,6.41Z"/>
        <path class="cls-1" d="M467.95,247.63c-3.53,0-6.41-2.88-6.41-6.41V57.16c0-3.53,2.88-6.41,6.41-6.41s6.41,2.88,6.41,6.41V241.22c0,3.53-2.88,6.41-6.41,6.41Z"/>
        <path class="cls-1" d="M493.59,217.74c-3.53,0-6.41-2.88-6.41-6.41V27.28c0-3.53,2.88-6.41,6.41-6.41s6.41,2.88,6.41,6.41V211.33c0,3.53-2.88,6.41-6.41,6.41Z"/>
        <path class="cls-2" d="M519.23,196.88c-3.53,0-6.41-2.88-6.41-6.41V6.41c0-3.53,2.88-6.41,6.41-6.41s6.41,2.88,6.41,6.41V190.47c0,3.53-2.88,6.41-6.41,6.41Z"/>
        <path class="cls-1" d="M544.87,247.63c-3.53,0-6.41-2.88-6.41-6.41V57.16c0-3.53,2.88-6.41,6.41-6.41s6.41,2.88,6.41,6.41V241.22c0,3.53-2.88,6.41-6.41,6.41Z"/>
        <path class="cls-1" d="M570.51,217.74c-3.53,0-6.41-2.88-6.41-6.41V27.28c0-3.53,2.88-6.41,6.41-6.41s6.41,2.88,6.41,6.41V211.33c0,3.53-2.88,6.41-6.41,6.41Z"/>
        <path class="cls-2" d="M596.15,196.88c-3.53,0-6.41-2.88-6.41-6.41V6.41c0-3.53,2.88-6.41,6.41-6.41s6.41,2.88,6.41,6.41V190.47c0,3.53-2.88,6.41-6.41,6.41Z"/>
        <path class="cls-1" d="M621.79,247.63c-3.53,0-6.41-2.88-6.41-6.41V57.16c0-3.53,2.88-6.41,6.41-6.41s6.41,2.88,6.41,6.41V241.22c0,3.53-2.88,6.41-6.41,6.41Z"/>
        <path class="cls-1" d="M647.44,217.74c-3.53,0-6.41-2.88-6.41-6.41V27.28c0-3.53,2.88-6.41,6.41-6.41s6.41,2.88,6.41,6.41V211.33c0,3.53-2.88,6.41-6.41,6.41Z"/>
        <path class="cls-1" d="M698.72,247.63c-3.53,0-6.41-2.88-6.41-6.41V57.16c0-3.53,2.88-6.41,6.41-6.41s6.41,2.88,6.41,6.41V241.22c0,3.53-2.88,6.41-6.41,6.41Z"/>
        <path class="cls-1" d="M724.36,217.74c-3.53,0-6.41-2.88-6.41-6.41V27.28c0-3.53,2.88-6.41,6.41-6.41s6.41,2.88,6.41,6.41V211.33c0,3.53-2.88,6.41-6.41,6.41Z"/>
        <path class="cls-2" d="M673.08,196.88c-3.53,0-6.41-2.88-6.41-6.41V6.41c0-3.53,2.88-6.41,6.41-6.41s6.41,2.88,6.41,6.41V190.47c0,3.53-2.88,6.41-6.41,6.41Z"/>
        <path class="cls-2" d="M750,196.88c-3.53,0-6.41-2.88-6.41-6.41V6.41c0-3.53,2.88-6.41,6.41-6.41s6.41,2.88,6.41,6.41V190.47c0,3.53-2.88,6.41-6.41,6.41Z"/>
        <path class="cls-1" d="M775.64,247.63c-3.53,0-6.41-2.88-6.41-6.41V57.16c0-3.53,2.88-6.41,6.41-6.41s6.41,2.88,6.41,6.41V241.22c0,3.53-2.88,6.41-6.41,6.41Z"/>
        <path class="cls-1" d="M801.28,217.74c-3.53,0-6.41-2.88-6.41-6.41V27.28c0-3.53,2.88-6.41,6.41-6.41s6.41,2.88,6.41,6.41V211.33c0,3.53-2.88,6.41-6.41,6.41Z"/>
        <path class="cls-2" d="M826.92,196.88c-3.53,0-6.41-2.88-6.41-6.41V6.41c0-3.53,2.88-6.41,6.41-6.41s6.41,2.88,6.41,6.41V190.47c0,3.53-2.88,6.41-6.41,6.41Z"/>
        <path class="cls-1" d="M852.56,247.63c-3.53,0-6.41-2.88-6.41-6.41V57.16c0-3.53,2.88-6.41,6.41-6.41s6.41,2.88,6.41,6.41V241.22c0,3.53-2.88,6.41-6.41,6.41Z"/>
        <path class="cls-1" d="M878.21,217.74c-3.53,0-6.41-2.88-6.41-6.41V27.28c0-3.53,2.88-6.41,6.41-6.41s6.41,2.88,6.41,6.41V211.33c0,3.53-2.88,6.41-6.41,6.41Z"/>
        <path class="cls-2" d="M903.85,196.88c-3.53,0-6.41-2.88-6.41-6.41V6.41c0-3.53,2.88-6.41,6.41-6.41s6.41,2.88,6.41,6.41V190.47c0,3.53-2.88,6.41-6.41,6.41Z"/>
        <path class="cls-1" d="M929.49,247.63c-3.53,0-6.41-2.88-6.41-6.41V57.16c0-3.53,2.88-6.41,6.41-6.41s6.41,2.88,6.41,6.41V241.22c0,3.53-2.88,6.41-6.41,6.41Z"/>
        <path class="cls-1" d="M955.13,217.74c-3.53,0-6.41-2.88-6.41-6.41V27.28c0-3.53,2.88-6.41,6.41-6.41s6.41,2.88,6.41,6.41V211.33c0,3.53-2.88,6.41-6.41,6.41Z"/>
        <path class="cls-2" d="M980.77,196.88c-3.53,0-6.41-2.88-6.41-6.41V6.41c0-3.53,2.88-6.41,6.41-6.41s6.41,2.88,6.41,6.41V190.47c0,3.53-2.88,6.41-6.41,6.41Z"/>
        <path class="cls-1" d="M1006.41,247.63c-3.53,0-6.41-2.88-6.41-6.41V57.16c0-3.53,2.88-6.41,6.41-6.41s6.41,2.88,6.41,6.41V241.22c0,3.53-2.88,6.41-6.41,6.41Z"/>
        <path class="cls-1" d="M1032.05,217.74c-3.53,0-6.41-2.88-6.41-6.41V27.28c0-3.53,2.88-6.41,6.41-6.41s6.41,2.88,6.41,6.41V211.33c0,3.53-2.88,6.41-6.41,6.41Z"/>
        <path class="cls-2" d="M1057.69,196.88c-3.53,0-6.41-2.88-6.41-6.41V6.41c0-3.53,2.88-6.41,6.41-6.41s6.41,2.88,6.41,6.41V190.47c0,3.53-2.88,6.41-6.41,6.41Z"/>
        <path class="cls-1" d="M1083.33,247.63c-3.53,0-6.41-2.88-6.41-6.41V57.16c0-3.53,2.88-6.41,6.41-6.41s6.41,2.88,6.41,6.41V241.22c0,3.53-2.88,6.41-6.41,6.41Z"/>
        <path class="cls-1" d="M1108.97,217.74c-3.53,0-6.41-2.88-6.41-6.41V27.28c0-3.53,2.88-6.41,6.41-6.41s6.41,2.88,6.41,6.41V211.33c0,3.53-2.88,6.41-6.41,6.41Z"/>
        <path class="cls-2" d="M1134.62,196.88c-3.53,0-6.41-2.88-6.41-6.41V6.41c0-3.53,2.88-6.41,6.41-6.41s6.41,2.88,6.41,6.41V190.47c0,3.53-2.88,6.41-6.41,6.41Z"/>
        <path class="cls-1" d="M1160.26,247.63c-3.53,0-6.41-2.88-6.41-6.41V57.16c0-3.53,2.88-6.41,6.41-6.41s6.41,2.88,6.41,6.41V241.22c0,3.53-2.88,6.41-6.41,6.41Z"/>
        <path class="cls-1" d="M1185.9,217.74c-3.53,0-6.41-2.88-6.41-6.41V27.28c0-3.53,2.88-6.41,6.41-6.41s6.41,2.88,6.41,6.41V211.33c0,3.53-2.88,6.41-6.41,6.41Z"/>
        <path class="cls-2" d="M1211.54,196.88c-3.53,0-6.41-2.88-6.41-6.41V6.41c0-3.53,2.88-6.41,6.41-6.41s6.41,2.88,6.41,6.41V190.47c0,3.53-2.88,6.41-6.41,6.41Z"/>
        <path class="cls-1" d="M1237.18,247.63c-3.53,0-6.41-2.88-6.41-6.41V57.16c0-3.53,2.88-6.41,6.41-6.41s6.41,2.88,6.41,6.41V241.22c0,3.53-2.88,6.41-6.41,6.41Z"/>
        <path class="cls-1" d="M1262.82,217.74c-3.53,0-6.41-2.88-6.41-6.41V27.28c0-3.53,2.88-6.41,6.41-6.41s6.41,2.88,6.41,6.41V211.33c0,3.53-2.88,6.41-6.41,6.41Z"/>
        <path class="cls-2" d="M1288.46,196.88c-3.53,0-6.41-2.88-6.41-6.41V6.41c0-3.53,2.88-6.41,6.41-6.41s6.41,2.88,6.41,6.41V190.47c0,3.53-2.88,6.41-6.41,6.41Z"/>
      </g>
    </g>
  </g>
</svg>