<?xml version="1.0" encoding="utf-8"?>
<!-- Generator: Adobe Illustrator 26.2.1, SVG Export Plug-In . SVG Version: 6.00 Build 0)  -->
<svg version="1.1"
	 id="svg2" sodipodi:docname="Twitter_bird_logo_2012.svg" xmlns:cc="http://creativecommons.org/ns#" xmlns:dc="http://purl.org/dc/elements/1.1/" xmlns:inkscape="http://www.inkscape.org/namespaces/inkscape" xmlns:rdf="http://www.w3.org/1999/02/22-rdf-syntax-ns#" xmlns:sodipodi="http://sodipodi.sourceforge.net/DTD/sodipodi-0.dtd" xmlns:svg="http://www.w3.org/2000/svg"
	 xmlns="http://www.w3.org/2000/svg" xmlns:xlink="http://www.w3.org/1999/xlink" x="0px" y="0px" viewBox="0 0 256 256"
	 style="enable-background:new 0 0 256 256;" xml:space="preserve">
<style type="text/css">
	.st0{fill:#FFFFFF;}
</style>
<sodipodi:namedview  bordercolor="#666666" borderopacity="1.0" fit-margin-bottom="0" fit-margin-left="0" fit-margin-right="0" fit-margin-top="0" id="base" inkscape:current-layer="layer1" inkscape:cx="101.29413" inkscape:cy="50.181142" inkscape:document-units="px" inkscape:pageopacity="0.0" inkscape:pageshadow="2" inkscape:window-height="962" inkscape:window-maximized="1" inkscape:window-width="1280" inkscape:window-x="-8" inkscape:window-y="-8" inkscape:zoom="3.7200571" pagecolor="#ffffff" showgrid="false">
	</sodipodi:namedview>
<g id="layer1" transform="translate(-282.32053,-396.30734)" inkscape:groupmode="layer" inkscape:label="Layer 1">
	<path id="path5" inkscape:connector-curvature="0" class="st0" d="M538.3,444.9c-9.4,4.2-19.5,7-30.2,8.3
		c10.8-6.5,19.2-16.8,23.1-29.1c-10.1,6-21.4,10.4-33.4,12.7c-9.6-10.2-23.2-16.6-38.3-16.6c-29,0-52.5,23.5-52.5,52.5
		c0,4.1,0.5,8.1,1.4,12c-43.7-2.2-82.4-23.1-108.3-54.9c-4.5,7.8-7.1,16.8-7.1,26.4c0,18.2,9.3,34.3,23.4,43.7
		c-8.6-0.3-16.7-2.6-23.8-6.6c0,0.2,0,0.4,0,0.7c0,25.4,18.1,46.7,42.1,51.5c-4.4,1.2-9,1.8-13.8,1.8c-3.4,0-6.7-0.3-9.9-0.9
		c6.7,20.9,26.1,36,49.1,36.5c-18,14.1-40.6,22.5-65.2,22.5c-4.2,0-8.4-0.2-12.5-0.7c23.2,14.9,50.9,23.6,80.5,23.6
		c96.6,0,149.4-80,149.4-149.4c0-2.3-0.1-4.5-0.2-6.8C522.4,464.7,531.3,455.4,538.3,444.9L538.3,444.9z"/>
</g>
</svg>
