<?xml version="1.0" encoding="utf-8"?>
<!-- Generator: Adobe Illustrator 26.2.1, SVG Export Plug-In . SVG Version: 6.00 Build 0)  -->
<svg version="1.1" id="Layer_1" xmlns="http://www.w3.org/2000/svg" xmlns:xlink="http://www.w3.org/1999/xlink" x="0px" y="0px"
	 viewBox="0 0 256 256" style="enable-background:new 0 0 256 256;" xml:space="preserve">
<style type="text/css">
	.st0{fill:#FFFFFF;}
</style>
<path class="st0" d="M108,69.8v40.9h34.1c5.6,0,10.7-2.3,14.5-6c3.7-3.7,6-8.9,6-14.5s-2.3-10.7-6-14.5c-3.7-3.7-8.9-6-14.5-6
	L108,69.8z M152.8,215.7V256h-29.7v-40.1h-10.3V256H83.2v-40.1H40.3l5.6-29.7h19.6c7.2,0,12.8-5.8,12.8-12.8v-91
	c0-7.2-5.8-12.8-12.8-12.8H40V39.8h43.2V0h29.7v40h10.3V0h29.7v41.1c9.7,2.1,18.2,7,25,13.6c9.1,9.1,14.7,21.7,14.7,35.5
	c0,9.3-2.5,17.8-7,25.4c5.6,2.7,10.7,6.2,15.1,10.5c9.5,9.5,15.3,22.7,15.3,37c0,14.4-5.8,27.5-15.3,37s-22.7,15.3-37,15.3
	L152.8,215.7z M108,140.6V186h55.7c6.2,0,11.8-2.5,16.1-6.6c4.1-4.1,6.6-9.9,6.6-16.1s-2.5-11.8-6.6-16.1c-4.1-4.3-9.9-6.6-16.1-6.6
	H108z"/>
</svg>
