<?xml version="1.0" encoding="utf-8"?>
<!-- Generator: Adobe Illustrator 26.2.1, SVG Export Plug-In . SVG Version: 6.00 Build 0)  -->
<svg version="1.1"
	 id="Слой_1" sodipodi:docname="YouTube_social_white_squircle_(2017).svg" xmlns:cc="http://creativecommons.org/ns#" xmlns:dc="http://purl.org/dc/elements/1.1/" xmlns:inkscape="http://www.inkscape.org/namespaces/inkscape" xmlns:rdf="http://www.w3.org/1999/02/22-rdf-syntax-ns#" xmlns:sodipodi="http://sodipodi.sourceforge.net/DTD/sodipodi-0.dtd" xmlns:svg="http://www.w3.org/2000/svg"
	 xmlns="http://www.w3.org/2000/svg" xmlns:xlink="http://www.w3.org/1999/xlink" x="0px" y="0px" viewBox="0 0 256 256"
	 style="enable-background:new 0 0 256 256;" xml:space="preserve">
<style type="text/css">
	.st0{fill:#FFFFFF;}
</style>
<sodipodi:namedview  bordercolor="#666666" borderopacity="1" fit-margin-bottom="0" fit-margin-left="0" fit-margin-right="0" fit-margin-top="0" gridtolerance="10" guidetolerance="10" id="namedview13" inkscape:current-layer="Слой_1" inkscape:cx="140.1615" inkscape:cy="129.72071" inkscape:pageopacity="0" inkscape:pageshadow="2" inkscape:window-height="715" inkscape:window-maximized="1" inkscape:window-width="1366" inkscape:window-x="-8" inkscape:window-y="-8" inkscape:zoom="1.18" objecttolerance="10" pagecolor="#ffffff" showgrid="false">
	</sodipodi:namedview>
<g id="g5360">
	<g id="g4167" transform="matrix(5.9026317,0,0,5.9026317,521.39665,-711.31763)">
		<path id="path4156" inkscape:connector-curvature="0" class="st0" d="M-45.9,131.8c-0.5-1.8-2-3.3-3.8-3.8c-3.4-0.9-17-0.9-17-0.9
			s-13.6,0-17,0.9c-1.8,0.5-3.3,2-3.8,3.9c-0.9,3.4-0.9,10.4-0.9,10.4s0,7.1,0.9,10.4c0.5,1.8,2,3.3,3.8,3.8c3.4,0.9,17,0.9,17,0.9
			s13.6,0,17-0.9c1.8-0.5,3.3-2,3.8-3.8c0.9-3.4,0.9-10.4,0.9-10.4S-44.9,135.2-45.9,131.8z M-71,148.7v-13l11.3,6.5L-71,148.7z"/>
		<polygon points="-59.7,142.2 -71,148.7 -71,135.7 		"/>
	</g>
</g>
</svg>
