<?xml version="1.0" encoding="utf-8"?>
<!-- Generator: Adobe Illustrator 26.2.1, SVG Export Plug-In . SVG Version: 6.00 Build 0)  -->
<svg version="1.1"
	 id="svg906" inkscape:version="1.1.1 (3bf5ae0d25, 2021-09-20)" xmlns:inkscape="http://www.inkscape.org/namespaces/inkscape" xmlns:sodipodi="http://sodipodi.sourceforge.net/DTD/sodipodi-0.dtd" xmlns:svg="http://www.w3.org/2000/svg"
	 xmlns="http://www.w3.org/2000/svg" xmlns:xlink="http://www.w3.org/1999/xlink" x="0px" y="0px" viewBox="0 0 256 256"
	 style="enable-background:new 0 0 256 256;" xml:space="preserve">
<style type="text/css">
	.st0{fill:#FFFFFF;}
	.st1{display:none;}
	.st2{display:inline;fill:none;stroke:#D8D8D8;stroke-width:0.4925;stroke-miterlimit:10;}
	.st3{display:inline;fill:none;stroke:#D8D8D8;stroke-width:0.5589;stroke-miterlimit:10;}
	.st4{display:inline;}
</style>
<sodipodi:namedview  bordercolor="#666666" borderopacity="1.0" fit-margin-bottom="0" fit-margin-left="0" fit-margin-right="0" fit-margin-top="0" id="namedview908" inkscape:current-layer="svg906" inkscape:cx="243.26544" inkscape:cy="83.782448" inkscape:pagecheckerboard="0" inkscape:pageopacity="0.0" inkscape:pageshadow="2" inkscape:window-height="1001" inkscape:window-maximized="1" inkscape:window-width="1920" inkscape:window-x="-9" inkscape:window-y="-9" inkscape:zoom="1.8559973" pagecolor="#ffffff" showgrid="false">
	</sodipodi:namedview>
<g id="Artwork" transform="translate(-56,-56)">
	<g id="g892">
		<g id="g890">
			<circle id="circle886" class="st0" cx="184" cy="184" r="128"/>
			<path id="path888" d="M269.4,184c0-10.4-8.4-18.6-18.6-18.6c-5,0-9.6,2-13,5.2c-12.8-9.2-30.4-15.1-49.9-15.9l8.6-40l27.8,6
				c0.3,7,6.1,12.7,13.3,12.7c7.3,0,13.3-6,13.3-13.3c0-7.3-6-13.3-13.3-13.3c-5.2,0-9.8,3.1-11.9,7.5l-31-6.6
				c-0.9-0.2-1.8,0-2.4,0.5c-0.8,0.5-1.2,1.2-1.4,2.1l-9.5,44.6c-19.9,0.6-37.7,6.6-50.7,15.9c-3.4-3.2-7.9-5.2-13-5.2
				c-10.4,0-18.6,8.4-18.6,18.6c0,7.6,4.6,14.1,11,17c-0.3,1.8-0.5,3.7-0.5,5.7c0,28.7,33.5,52.1,74.7,52.1s74.7-23.2,74.7-52.1
				c0-1.8-0.2-3.8-0.5-5.7C264.8,198.2,269.4,191.6,269.4,184L269.4,184z M141.4,197.3c0-7.3,6-13.3,13.3-13.3s13.3,6,13.3,13.3
				c0,7.3-6,13.3-13.3,13.3C147.3,210.7,141.4,204.6,141.4,197.3z M215.8,232.6c-9.2,9.2-26.6,9.8-31.6,9.8
				c-5.2,0-22.6-0.8-31.6-9.8c-1.4-1.4-1.4-3.5,0-4.9c1.4-1.4,3.5-1.4,4.9,0c5.8,5.8,18,7.8,26.7,7.8c8.7,0,21.1-2,26.7-7.8
				c1.4-1.4,3.5-1.4,4.9,0C217,229.1,217,231.2,215.8,232.6z M213.3,210.7c-7.3,0-13.3-6-13.3-13.3c0-7.3,6-13.3,13.3-13.3
				s13.3,6,13.3,13.3C226.6,204.6,220.7,210.7,213.3,210.7z"/>
		</g>
	</g>
</g>
<g id="Spacing_Guides" transform="translate(-56,-56)" class="st1">
	<rect id="rect895" x="-115.3" y="44.2" class="st2" width="598.6" height="55.9"/>
	<rect id="rect897" x="-115.3" y="267.8" class="st2" width="598.6" height="55.9"/>
	<rect id="rect899" x="-115.3" y="44.2" class="st3" width="55.9" height="279.6"/>
	<rect id="rect901" x="427.4" y="44.2" class="st3" width="55.9" height="279.6"/>
	<g id="reddit_round" class="st4">
	</g>
	<g id="icon_2" class="st4">
	</g>
</g>
</svg>
