<?xml version="1.0" encoding="utf-8"?>
<!-- Generator: Adobe Illustrator 26.2.1, SVG Export Plug-In . SVG Version: 6.00 Build 0)  -->
<svg version="1.1" id="Layer_1" xmlns="http://www.w3.org/2000/svg" xmlns:xlink="http://www.w3.org/1999/xlink" x="0px" y="0px"
	 viewBox="0 0 256 256" style="enable-background:new 0 0 256 256;" xml:space="preserve">
<style type="text/css">
	.st0{fill:#FFFFFF;}
</style>
<g id="Layer_2_00000049185001955719634730000018248872331566742173_">
	<g id="Layer_1-2">
		<path class="st0" d="M254.6,193.5L1.5,222.7c-1,0.1-1.6,1.1-1.5,2c0,0.2,0.1,0.3,0.1,0.4l4.4,12.3c0.8,2.5,3.2,4.3,5.9,4.2h105
			c19.1,1.6,37-9.5,44.1-27.3c0-0.8,0.7-1.5,1.5-1.5s1.5,0.7,1.5,1.5l0,0c2.9,9.7,12.4,27.3,43.6,27.3c26.5,0.3,48.5-20.4,49.7-46.9
			c0.3-0.4,0.1-1-0.3-1.3C255.3,193.3,254.9,193.3,254.6,193.5z"/>
		<path class="st0" d="M17.1,210.3l199.7-22.7c3.9-0.5,6.6-4.1,6.1-8c0-0.2,0-0.3-0.1-0.5c-16.8-65.4-60.8-120.5-121-151.3l0,0V16.3
			c0-1.2-1-2.2-2.2-2.2h-2.3L53,40.5c-0.7,0.5-0.9,1.4-0.4,2.1c0.3,0.5,0.9,0.8,1.5,0.6L97,34.4v12.3c-0.1,7.6-1.5,15-4.1,22.1
			c-18.5,49.9-44.7,96.6-77.6,138.4c-0.6,0.9-0.4,2.1,0.5,2.7C16.2,210.2,16.6,210.3,17.1,210.3z M101.7,32.6c0,0,0,0,0.8,0
			c13,19.5,30.2,117,1.9,154.3c-1,1.2-2.7,1.2-2.7,0V32.6z"/>
	</g>
</g>
</svg>
