<?xml version="1.0" encoding="UTF-8"?>
<svg id="Layer_2" data-name="Layer 2" xmlns="http://www.w3.org/2000/svg" xmlns:xlink="http://www.w3.org/1999/xlink" viewBox="0 0 388.55 388.55">
  <defs>
    <style>
      .cls-1 {
        fill: #fff;
      }

      .cls-2 {
        clip-path: url(#clippath);
      }

      .cls-3 {
        fill: none;
      }

      .cls-4 {
        fill: url(#linear-gradient);
      }
    </style>
    <linearGradient id="linear-gradient" x1="-423.93" y1="-2755.55" x2="-262.7" y2="-3313.36" gradientTransform="translate(564 -2748.8) scale(1 -1)" gradientUnits="userSpaceOnUse">
      <stop offset="0" stop-color="#000"/>
      <stop offset=".14" stop-color="#575757"/>
      <stop offset=".45" stop-color="#ababab"/>
      <stop offset=".7" stop-color="#fff"/>
      <stop offset=".89" stop-color="#fff"/>
      <stop offset="1" stop-color="#fff"/>
    </linearGradient>
    <clipPath id="clippath">
      <rect class="cls-3" x="0" y="0" width="388.55" height="388.55" rx="194.26" ry="194.26"/>
    </clipPath>
  </defs>
  <g id="Layer_1-2" data-name="Layer 1">
    <rect class="cls-4" x="0" y="0" width="388.55" height="388.55" rx="194.26" ry="194.26"/>
    <g class="cls-2">
      <path class="cls-1" d="M32.69,151.35c1.65-.89,2.27-2.95,1.38-4.6-.06-.12-.13-.23-.21-.34-1.11-1.61-3.28-2.1-4.98-1.13-1.33,1.61-1.1,3.98,.51,5.31,.91,.75,2.12,1.03,3.26,.76h.04ZM244.29,56.44c1.63-.83,2.29-2.83,1.46-4.46-.09-.18-.2-.35-.33-.52-1.11-1.59-3.25-2.08-4.94-1.13-1.59,1.11-2.08,3.25-1.13,4.94,1.1,1.61,3.24,2.11,4.94,1.17Zm44.98,137.25c-.52,2.21,.85,4.42,3.06,4.94,2.21,.52,4.42-.85,4.94-3.06,.51-2.2-.84-4.4-3.03-4.93-2.21-.46-4.39,.88-4.98,3.05Zm-59.46,138.76c-1.55-.75-3.05,.38-3.77,2.3-.41,1.68,.62,3.37,2.3,3.78s3.37-.62,3.78-2.3c.41-1.68-.62-3.37-2.3-3.78,0,0,0,0-.01,0ZM56.78,76.05c1.04,.23,2.06-.43,2.29-1.46,.23-1.04-.43-2.06-1.46-2.29-.02,0-.05-.01-.07-.01-1.13,0-2.3,.38-2.3,1.51-.29,.89,.19,1.85,1.08,2.14,.15,.05,.31,.08,.46,.08v.04Zm12.14,188.98c-1.55,.38-2.68,1.51-2.3,3.05,.16,1.43,1.45,2.45,2.88,2.29,.06,0,.12-.02,.17-.03,1.51,0,2.3-1.51,2.3-3.05-.14-1.43-1.42-2.47-2.85-2.33-.07,0-.14,.02-.21,.03v.04Zm253.64-129.4l-2.3,9.92-9.01,4.3,9.88,2.3,4.22,8.75,2.26-9.92,8.94-4.03-9.92-2.3-4.07-9.01ZM193.58,70.55c-1.99,.61-3.12,2.71-2.51,4.71,.06,.21,.15,.41,.25,.61,1.64,3.54,2.04,7.52,1.13,11.31-.39,2.31,1.13,4.5,3.43,4.94h.75c1.96,0,3.59-1.48,3.77-3.43,1.42-5.34,.89-11.01-1.51-15.99-.66-1.97-2.8-3.04-4.77-2.38-.19,.06-.37,.14-.54,.23Zm-1.89-16.4c-.96-2.09-2.23-4.02-3.77-5.73-1.61-1.51-4.12-1.51-5.73,0-1.55,1.6-1.55,4.14,0,5.73,.92,1.15,1.7,2.42,2.3,3.77,1.11,2.02,3.58,2.85,5.69,1.92,1.91-1.21,2.57-3.69,1.51-5.69Zm144.67,266.76c-5.76-23.78-13.33-47.08-22.62-69.72-7.81-19.68-33.22-43.93-49.62-55.99-5.27-3.94-6.36-11.4-2.42-16.68,.38-.51,.8-.98,1.25-1.42,16.02-15.46,44.53-45.25,53.77-60.82,6.03-11.01,17.91-31.9,18.44-50,1.17-13.46-.68-29.03-18.51-36.16-8.91-3.99-19.31-2.65-26.92,3.47-11.31,7.77-15.08,29.03-22.89,50.22-9.2,24.43-23.68,27.52-31.33,27.52s-2.64-8.07-20.17-58.78C197.8,1.85,151.24,11.09,116.21,32.05c-44.61,26.66-24.81,83.48-13.72,120.09-6.15,6.11-29.75,10.67-51.09,22.1-13.27,7.13-24.62,11.73-35.71,20.62C.26,207.27-6.41,221.25-1.06,240.33c2.32,6.7,7.16,12.24,13.5,15.42,12.59,5.73,31.14-2.6,59.54-23.94,13.93-9.03,29.07-16.03,44.98-20.78,0,0,17.16,26.39,33.18,57.58,16.02,31.18-17.19,41.48-20.62,41.48s-55.8-5.09-43.81,39.14c11.99,44.23,75.11,28.2,107.5,6.86,32.39-21.34,24.4-91.1,24.4-91.1,31.63-4.94,41.55,28.58,44.64,45.74,3.09,17.16-3.77,46.91,28.2,47.66,4.52-.04,9.01-.68,13.35-1.92,17.27-4,27.26-12.67,31.37-21.91,1.84-4.31,2.27-9.09,1.21-13.65ZM176.8,113.53c-32.39,12.22-48.04-3.77-49.92-33.14-2.3-33.18,28.58-41.48,28.58-41.48,34.31-11.31,43.47,4.94,51.47,29.33,7.99,24.4,1.92,33.18-30.13,45.36v-.08Z"/>
    </g>
  </g>
</svg>