<?xml version="1.0" encoding="utf-8"?>
<!-- Generator: Adobe Illustrator 26.2.1, SVG Export Plug-In . SVG Version: 6.00 Build 0)  -->
<svg version="1.1" id="Layer_1" xmlns="http://www.w3.org/2000/svg" xmlns:xlink="http://www.w3.org/1999/xlink" x="0px" y="0px"
	 viewBox="0 0 256 256" style="enable-background:new 0 0 256 256;" xml:space="preserve">
<style type="text/css">
	.st0{fill:#FFFFFF;}
</style>
<g>
	<path class="st0" d="M242.3,153.5c-3.5,18.1-31.4,37.8-63.5,41.7c-16.7,2-33.2,3.8-50.8,3c-28.7-1.3-51.4-6.9-51.4-6.9
		c0,2.8,0.2,5.5,0.5,7.9c3.7,28.3,28.1,30,51.2,30.8c23.3,0.8,44-5.7,44-5.7l1,21.1c0,0-16.3,8.8-45.3,10.4c-16,0.9-35.9-0.4-59-6.5
		c-50.2-13.3-58.8-66.8-60.2-121.1C8.4,112,8.7,96.8,8.7,84c0-55.5,36.4-71.8,36.4-71.8C63.4,3.8,94.9,0.3,127.6,0h0.8
		c32.7,0.3,64.2,3.8,82.6,12.2c0,0,36.4,16.3,36.4,71.8C247.4,84,247.8,125,242.3,153.5"/>
	<path d="M204.5,88.4v67.2h-26.6V90.3c0-13.8-5.8-20.7-17.4-20.7c-12.8,0-19.2,8.3-19.2,24.7V130h-26.5V94.3
		c0-16.4-6.4-24.7-19.2-24.7c-11.6,0-17.4,7-17.4,20.7v65.3H51.5V88.4c0-13.7,3.5-24.7,10.5-32.7c7.2-8.1,16.7-12.2,28.5-12.2
		c13.6,0,24,5.2,30.8,15.7l6.6,11.1l6.6-11.1c6.8-10.5,17.1-15.7,30.8-15.7c11.8,0,21.3,4.1,28.5,12.2
		C201,63.7,204.5,74.6,204.5,88.4"/>
</g>
</svg>
