<?xml version="1.0" encoding="utf-8"?>
<!-- Generator: Adobe Illustrator 26.2.1, SVG Export Plug-In . SVG Version: 6.00 Build 0)  -->
<svg version="1.1" id="Layer_1" xmlns="http://www.w3.org/2000/svg" xmlns:xlink="http://www.w3.org/1999/xlink" x="0px" y="0px"
	 viewBox="0 0 256 256" style="enable-background:new 0 0 256 256;" xml:space="preserve">
<style type="text/css">
	.st0{fill:#FFFFFF;}
</style>
<g id="ne_wlogo_00000153685411186601368810000016892024918364671896_">
	<path class="st0" d="M138.9,10.9v29c0,1.6-1.5,2.8-3.1,2.4c-2.5-0.6-5.1-0.9-7.8-0.9s-5.3,0.3-7.8,0.9c-1.6,0.4-3.1-0.8-3.1-2.4
		v-29C117.1,4.9,122,0,128,0h0.1C134,0,138.9,4.9,138.9,10.9z"/>
	<path class="st0" d="M128,214.6c2.7,0,5.3-0.3,7.8-0.9c1.6-0.4,3.1,0.8,3.1,2.4v29c0,6-4.9,10.9-10.9,10.9h0
		c-6,0-10.9-4.9-10.9-10.9v-29c0-1.6,1.5-2.8,3.1-2.4C122.7,214.3,125.3,214.6,128,214.6z"/>
	<path class="st0" d="M117.3,101.4c0-0.1-0.1-0.3-0.1-0.4C117.3,101.2,117.3,101.3,117.3,101.4z"/>
	<path class="st0" d="M215.1,210.6L215.1,210.6c-6,0-10.9-4.9-10.9-10.9V47.2c0-6,4.9-10.9,10.9-10.9l0,0c6,0,10.9,4.9,10.9,10.9
		v152.5C225.9,205.7,221.1,210.6,215.1,210.6z"/>
	<path class="st0" d="M171.5,91.8L171.5,91.8c-6,0-10.9-4.9-10.9-10.9V23.5c0-6,4.9-10.9,10.9-10.9l0,0c6,0,10.9,4.9,10.9,10.9v57.4
		C182.4,86.9,177.5,91.8,171.5,91.8z"/>
	<path class="st0" d="M171.5,232.9L171.5,232.9c-6,0-10.9-4.9-10.9-10.9v-98c0-6,4.9-10.9,10.9-10.9l0,0c6,0,10.9,4.9,10.9,10.9v98
		C182.4,228.1,177.5,232.9,171.5,232.9z"/>
	<path class="st0" d="M84.5,12.6L84.5,12.6c6,0,10.9,4.9,10.9,10.9v98c0,6-4.9,10.9-10.9,10.9l0,0c-6,0-10.9-4.9-10.9-10.9v-98
		C73.6,17.5,78.5,12.6,84.5,12.6z"/>
	<path class="st0" d="M40.9,210.6L40.9,210.6c-6,0-10.9-4.9-10.9-10.9V47.2c0-6,4.9-10.9,10.9-10.9l0,0c6,0,10.9,4.9,10.9,10.9
		v152.5C51.8,205.7,46.9,210.6,40.9,210.6z"/>
	<path class="st0" d="M84.5,153.8L84.5,153.8c6,0,10.9,4.9,10.9,10.9V222c0,6-4.9,10.9-10.9,10.9l0,0c-6,0-10.9-4.9-10.9-10.9v-57.4
		C73.6,158.6,78.5,153.8,84.5,153.8z"/>
	<path class="st0" d="M138.9,73.9v39.9c0,3.6-4.3,5.3-6.8,2.8l-12-12c-1.9-1.9-3-4.5-3-7.2V73.9c0-0.1,0-0.1,0-0.2
		c0.1-5.8,4.8-10.5,10.6-10.6c0.1,0,0.1,0,0.2,0h0.1C134,63,138.9,67.9,138.9,73.9z"/>
	<path class="st0" d="M138.9,158.5v24c0,6-4.9,10.9-10.9,10.9h0c-0.1,0-0.1,0-0.2,0c-2.9-0.1-5.5-1.3-7.4-3.2s-3.1-4.5-3.2-7.4
		c0-0.1,0-0.1,0-0.2v-40.3c0-3.6,4.3-5.3,6.8-2.8l12,12C137.8,153.2,138.9,155.8,138.9,158.5z"/>
</g>
</svg>
